<svg width="70" height="70" viewBox="0 0 70 70" fill="none" xmlns="http://www.w3.org/2000/svg">
<path d="M22.4632 41.453L25.9986 45.1122L32.4927 38.4167V70H37.5075V38.4167L44.0016 45.1122L47.5369 41.453L35.0001 28.4771L22.4632 41.453Z" fill="#C4C4C4"/>
<path d="M53.8053 51.834H52.5516V46.6437H53.8053C56.7978 46.7676 59.7152 45.656 61.9159 43.5535C64.1165 41.451 65.4201 38.5298 65.5398 35.4325C65.6595 32.3352 64.5855 29.3156 62.5542 27.0379C60.5228 24.7602 57.7004 23.411 54.7079 23.2871H52.5516L52.3009 21.159C51.7446 16.7899 49.6728 12.779 46.4715 9.87358C43.2701 6.96812 39.1575 5.36619 34.8997 5.36619C30.6419 5.36619 26.5293 6.96812 23.328 9.87358C20.1266 12.779 18.0548 16.7899 17.4986 21.159L17.4484 23.2871H15.2921C12.2996 23.411 9.47721 24.7602 7.44585 27.0379C5.41448 29.3156 4.34052 32.3352 4.46022 35.4325C4.57992 38.5298 5.88347 41.451 8.08412 43.5535C10.2848 45.656 13.2022 46.7676 16.1947 46.6437H17.4484V51.834H16.1947C12.1739 51.8077 8.30444 50.2439 5.33024 47.4432C2.35604 44.6426 0.487082 40.8029 0.0826766 36.6623C-0.321728 32.5217 0.766973 28.3725 3.13947 25.0125C5.51196 21.6524 9.00077 19.3187 12.9351 18.46C14.0176 13.2347 16.7986 8.55157 20.8141 5.1921C24.8296 1.83263 29.8367 0 35 0C40.1633 0 45.1704 1.83263 49.1859 5.1921C53.2014 8.55157 55.9824 13.2347 57.0649 18.46C60.9992 19.3187 64.488 21.6524 66.8605 25.0125C69.233 28.3725 70.3217 32.5217 69.9173 36.6623C69.5129 40.8029 67.644 44.6426 64.6698 47.4432C61.6956 50.2439 57.8261 51.8077 53.8053 51.834V51.834Z" fill="#C4C4C4"/>
</svg>
